<svg width="38" height="38" viewBox="0 0 38 38" fill="none" xmlns="http://www.w3.org/2000/svg">
<g id="Frame">
<path id="Vector" d="M9.54473 21.0447H31.2352C32.3113 21.0447 33.1834 20.1764 33.1834 19.1076V19C33.1834 17.9313 32.3113 17.0629 31.2352 17.0629H9.49649L15.9943 10.5428C16.744 9.78945 16.744 8.57598 15.9943 7.82266L15.9795 7.80781C15.2299 7.05449 14.009 7.04707 13.2482 7.78926L13.2297 7.80781L2.66465 18.41C2.48462 18.5909 2.38354 18.8357 2.38354 19.0909C2.38354 19.3461 2.48462 19.591 2.66465 19.7719L4.73165 21.8463L13.0627 30.1996C13.8197 30.9604 15.0555 30.9641 15.8199 30.2145L15.8348 30.1996L15.8979 30.1365C16.6512 29.3832 16.6512 28.166 15.8979 27.4127L9.54473 21.0447Z" fill="#00355F"/>
</g>
</svg>
