<svg width="24" height="24" viewBox="0 0 24 24" fill="none" xmlns="http://www.w3.org/2000/svg">
<g id="Frame 5">
<path id="Union" fill-rule="evenodd" clip-rule="evenodd" d="M7.48528 4.92893C7.09476 4.53841 6.46159 4.53841 6.07107 4.92893C5.68054 5.31946 5.68054 5.95262 6.07107 6.34315L11.0208 11.2929L5.36396 16.9497C4.97344 17.3403 4.97344 17.9734 5.36396 18.364C5.75449 18.7545 6.38765 18.7545 6.77817 18.364L12.435 12.7071L18.0919 18.364C18.4824 18.7545 19.1156 18.7545 19.5061 18.364C19.8966 17.9734 19.8966 17.3403 19.5061 16.9497L13.8492 11.2929L18.799 6.34315C19.1895 5.95262 19.1895 5.31946 18.799 4.92893C18.4085 4.53841 17.7753 4.53841 17.3848 4.92893L12.435 9.87868L7.48528 4.92893Z" fill="white"/>
</g>
</svg>
