<svg width="640" height="540" viewBox="0 0 640 540" fill="none" xmlns="http://www.w3.org/2000/svg">
<path d="M273.207 670.338H269.576C238.633 670.186 210.689 669.429 182.43 662.609C148.803 654.426 120.228 640.03 99.5468 620.482C62.6046 585.779 45.0808 532.438 47.4488 462.124L47.6067 456.517L52.6587 459.245C65.7622 466.216 82.8122 468.489 97.4944 469.701C135.7 472.883 173.273 486.219 203.111 507.434C234.686 530.013 256.314 559.866 265.471 593.811C272.102 618.057 272.733 643.212 273.049 666.852L273.207 670.338ZM54.5531 467.731C53.1323 533.347 70.0246 583.052 104.599 615.632C124.333 634.272 151.961 648.213 184.167 655.942C210.531 662.306 236.896 663.216 265.945 663.367C265.787 641.242 264.84 617.754 258.683 595.478C249.842 563.049 229.16 534.408 198.849 512.889C170.116 492.432 133.963 479.399 97.0209 476.369C83.4439 475.459 67.8144 473.489 54.5531 467.731Z" fill="#2E3238" fill-opacity="0.04"/>
<path d="M60.7102 299.22L61.3417 287.703C62.289 271.64 64.1834 250.576 71.1298 229.664C89.7588 173.595 141.541 148.894 193.007 128.285C195.849 127.224 198.691 126.012 201.533 124.951C232.949 112.828 263.734 103.281 293.099 96.462L314.096 91.6128L295.783 102.675C287.889 107.524 279.68 112.677 271.628 117.98L271.312 118.284C209.742 159.047 151.645 205.266 98.5997 255.577C87.3907 266.185 77.129 277.702 67.8145 289.976L60.7102 299.22ZM273.681 108.434C251.105 114.495 227.897 122.224 204.217 131.316C201.375 132.377 198.533 133.589 195.691 134.65C145.804 154.501 95.6001 178.444 77.9184 231.786C72.7086 247.394 70.4984 263.306 69.2354 276.793C76.8133 267.7 84.8646 258.911 93.5476 250.728C146.909 200.114 205.322 153.743 267.208 112.677L267.523 112.374C269.734 111.01 271.786 109.646 273.681 108.434Z" fill="#2E3238" fill-opacity="0.04"/>
<path d="M780.136 244.364L770.98 236.483C732.775 203.448 686.676 174.656 625.895 145.864C554.852 112.222 485.546 93.7343 419.713 90.7035C408.188 90.2489 396.821 90.0974 385.612 90.552C356.564 91.6128 325.936 95.8559 294.678 103.13L273.681 107.979L291.994 96.9166C360.984 55.2436 423.028 35.5436 487.125 35.089C563.219 34.6344 636.314 58.4259 693.148 102.069C732.143 132.074 760.244 176.171 776.821 232.998L780.136 244.364ZM400.768 83.4297C407.241 83.4297 413.714 83.5812 420.186 83.8843C486.967 86.9151 557.22 105.706 629.052 139.802C685.571 166.624 729.617 193.447 766.401 223.754C749.983 173.747 723.776 134.65 688.57 107.524C633.157 64.7905 561.483 41.4536 487.125 42.0598C429.975 42.5144 374.561 58.4259 313.938 92.2189C338.408 87.5212 362.405 84.7935 385.297 83.8843C390.506 83.4297 395.716 83.4297 400.768 83.4297Z" fill="#2E3238" fill-opacity="0.04"/>
<path d="M54.5539 468.034L49.5021 465.306C44.608 462.73 40.3453 459.548 36.7142 456.063C29.1364 448.637 24.0845 438.484 21.4007 425.755C12.2441 382.263 26.6105 332.559 62.1319 285.733L69.2362 276.338L68.6047 287.855C68.131 297.099 67.8152 306.494 67.4994 315.586C67.1837 328.77 66.7101 342.257 65.605 355.593C64.3421 369.383 62.6054 383.476 61.0267 396.963C58.9743 413.177 57.0798 429.846 55.659 446.213C55.3432 450.91 55.0275 456.214 54.8696 462.124L54.5539 468.034ZM60.8689 299.523C31.6624 341.803 20.1377 385.749 28.3471 424.543C30.7152 435.908 35.2935 444.849 41.7663 451.365C43.5029 453.183 45.5551 454.85 47.7653 456.366C47.9232 452.729 48.0811 449.243 48.3969 446.061C49.6599 429.543 51.7122 412.723 53.7646 396.508C55.3433 383.021 57.0799 369.08 58.3429 355.29C59.6059 342.257 59.9216 328.77 60.2373 315.738C60.3952 310.283 60.5531 304.979 60.8689 299.523Z" fill="#2E3238" fill-opacity="0.04"/>
<path d="M552.799 783.688L551.379 783.234C521.383 774.445 501.491 756.563 480.494 737.621C474.81 732.468 468.969 727.316 462.97 722.164C437.552 700.797 401.084 688.219 375.824 680.491C343.145 670.641 308.728 670.489 275.259 670.186H266.103V666.852C265.945 643.667 265.155 618.966 258.84 595.629C250 563.2 229.318 534.559 199.007 513.041C170.274 492.583 134.121 479.551 97.1788 476.52C81.7072 475.308 63.8677 472.883 49.5013 465.306L47.6067 464.246V462.124C47.7646 456.063 48.0803 450.759 48.5539 445.909C49.8169 429.392 51.8693 412.571 53.9216 396.356C55.5003 382.87 57.237 368.928 58.4999 355.138C59.7629 342.106 60.0786 328.619 60.3943 315.587C60.7101 306.343 60.8681 296.947 61.4996 287.552V286.491L62.1311 285.733C71.6035 273.156 82.1809 261.336 93.7056 250.577C147.067 199.963 205.48 153.592 267.366 112.525L267.681 112.222C275.891 106.767 284.1 101.614 291.994 96.7651L292.467 96.462L293.099 96.3105C324.989 88.8851 356.09 84.6421 385.454 83.5813C396.821 83.1267 408.504 83.2782 420.186 83.7328C486.967 86.7636 557.22 105.554 629.052 139.65C690.465 168.746 737.037 197.841 775.716 231.331L776.505 231.937L776.821 232.847C790.24 278.763 795.134 332.862 790.872 384.84C788.346 415.299 783.925 445.606 777.926 475.005L777.61 476.217L771.927 480.46C755.034 492.735 737.511 505.616 722.828 520.618C708.462 535.469 700.411 557.442 697.569 589.871C696.306 603.509 696.148 617.602 695.99 632.453C695.832 644.728 695.674 657.305 694.885 669.732V670.792L694.253 671.55C657.943 717.769 609.634 756.108 554.378 782.779L552.799 783.688ZM273.207 663.518H275.417C309.36 663.67 344.408 663.822 378.034 674.126C403.926 682.006 441.341 694.887 467.706 717.163C473.863 722.315 479.704 727.619 485.388 732.772C505.438 750.956 524.54 768.08 552.168 776.415C605.687 750.501 652.417 713.375 687.623 668.671C688.412 656.699 688.57 644.576 688.728 632.756C688.886 617.754 689.201 603.509 690.307 589.719C692.201 568.352 697.095 537.439 717.461 516.375C732.617 500.766 750.298 487.886 767.506 475.308L771.138 472.732C776.979 444.091 781.241 414.389 783.767 384.536C787.872 333.62 783.136 280.884 770.19 235.877C732.143 203.145 686.202 174.504 625.895 145.864C554.852 112.222 485.546 93.7343 419.713 90.7036C408.188 90.2489 396.821 90.0974 385.612 90.5521C356.721 91.6128 326.41 95.8559 295.151 102.978C287.415 107.676 279.364 112.677 271.47 117.98L271.154 118.284C209.584 159.199 151.487 205.267 98.4418 255.577C87.5486 265.882 77.4446 277.247 68.288 289.067C67.8144 298.008 67.4987 307.1 67.3408 315.89C67.025 329.073 66.5515 342.56 65.4464 355.896C64.1834 369.686 62.4468 383.779 60.868 397.266C58.8157 413.48 56.9212 430.149 55.5003 446.516C55.1846 450.607 54.8688 455.153 54.711 460.306C67.6565 466.519 83.6018 468.64 97.6525 469.701C135.858 472.883 173.431 486.219 203.269 507.434C234.844 530.013 256.472 559.866 265.629 593.811C271.944 616.996 272.891 640.788 273.207 663.518Z" fill="#2E3238" fill-opacity="0.04"/>
<path d="M437.71 839C426.975 839 416.082 838.697 405.189 837.788C288.836 829.605 182.588 778.385 106.336 693.675C30.0831 608.965 -7.33291 500.615 1.19222 388.931C9.71735 277.247 63.0785 175.262 151.329 102.069C239.58 28.8759 352.459 -7.03868 468.811 1.14439C585.164 9.32746 691.412 60.5474 767.664 145.257C843.917 229.967 881.333 338.317 872.808 450.001C864.283 561.685 810.922 663.67 722.671 736.863C642.629 803.389 542.538 839 437.71 839ZM358.3 825.21C373.93 827.938 389.717 829.908 405.82 831.12C520.278 839.152 631.262 803.843 718.092 731.862C804.922 659.882 857.494 559.563 865.861 449.698C874.229 339.833 837.444 233.301 762.455 149.955C687.465 66.6089 582.953 16.1467 468.496 8.11512C354.038 0.0835829 243.053 35.392 156.223 107.373C69.3934 179.353 16.8218 279.672 8.45452 389.537C0.0872641 499.403 36.8716 605.934 111.861 689.28C166.801 750.199 237.37 793.539 315.99 815.512C298.94 807.632 286.626 795.205 279.68 778.385C266.418 746.41 266.261 711.405 266.103 677.46C266.103 675.036 266.103 672.611 266.103 670.035C236.581 669.732 209.584 668.822 182.43 662.306C148.803 654.123 120.228 639.727 99.547 620.179C62.9205 585.779 45.3967 533.196 47.449 463.943C43.3443 461.518 39.7132 458.79 36.5558 455.76C28.9779 448.334 23.926 438.181 21.2422 425.452C12.0856 382.112 26.2941 332.862 61.3419 286.34C62.2891 270.428 64.3414 249.819 71.1299 229.21C89.7589 173.14 141.541 148.44 193.008 127.83C195.849 126.77 198.691 125.557 201.533 124.497C232.792 112.525 263.261 102.978 292.467 96.1589C361.3 54.6374 423.186 35.0889 487.125 34.6343C563.219 34.1797 636.314 57.9713 693.148 101.614C731.827 131.467 759.929 175.262 776.505 231.634C788.504 241.939 799.555 252.698 809.659 263.609C837.76 293.917 853.863 324.376 857.336 354.077C859.862 375.141 854.179 396.205 840.444 416.814C834.603 425.603 827.025 434.393 818.184 443.03C805.554 455.305 791.819 465.761 777.61 476.066C767.664 523.194 753.456 566.534 735.143 605.025C724.249 627.907 710.672 650.032 694.569 670.489C692.517 702.009 686.991 724.589 676.572 743.834C655.101 783.385 595.741 795.054 553.115 783.234C552.958 783.234 552.957 783.234 552.8 783.082C496.281 809.905 435.027 823.998 370.772 824.907C366.51 825.513 362.247 825.513 358.3 825.21ZM489.651 41.9082C488.861 41.9082 488.072 41.9082 487.282 41.9082C424.449 42.3628 363.668 61.6082 295.783 102.675L295.309 102.978L294.678 103.13C265.629 109.797 235.16 119.344 204.217 131.316C201.375 132.377 198.533 133.589 195.692 134.65C145.804 154.501 95.6003 178.444 77.9185 231.786C71.2879 252.092 69.2355 272.55 68.4462 288.158V289.219L67.8146 289.977C33.5562 335.135 19.5056 383.021 28.3464 424.543C30.7145 435.908 35.2928 444.849 41.7656 451.365C44.9231 454.396 48.3963 457.123 52.8167 459.396L54.7111 460.457V462.579C52.343 530.923 69.0775 582.446 104.599 615.784C124.333 634.423 151.961 648.365 184.167 656.093C211.637 662.761 239.106 663.367 269.576 663.67H273.049V667.004C273.049 670.641 273.049 674.126 273.049 677.763C273.207 711.102 273.207 745.501 285.995 776.112C294.204 795.963 315.675 819.603 370.457 818.845C434.237 817.936 494.86 803.995 550.747 777.172L552.01 776.566L553.431 777.021C553.747 777.172 553.905 777.172 554.221 777.324C554.536 777.476 554.694 777.475 555.01 777.475C594.952 788.538 650.365 777.93 670.257 741.409C680.361 722.922 685.729 700.797 687.623 669.732V668.671L688.255 667.913C704.2 647.456 717.935 625.634 728.67 602.903C746.825 564.564 761.034 521.224 770.822 474.096L771.138 472.883L772.243 472.126C786.609 461.669 800.502 451.213 812.974 438.939C821.499 430.604 828.603 422.118 834.287 413.783C847.074 394.69 852.442 374.99 850.074 355.593C846.759 327.255 831.287 298.008 804.133 268.761C793.871 257.699 782.978 247.243 770.822 236.635L770.032 236.029L769.717 235.12C753.614 179.657 726.302 136.771 688.412 107.676C633.946 65.0936 563.219 41.9082 489.651 41.9082Z" fill="#2E3238" fill-opacity="0.04"/>
</svg>
