<svg width="417" height="417" viewBox="0 0 417 417" fill="none" xmlns="http://www.w3.org/2000/svg">
<g clip-path="url(#clip0_21_401)">
<path fill-rule="evenodd" clip-rule="evenodd" d="M256.812 239.056L256.386 238.687L184.232 295.207L185.202 295.119C206.126 293.216 220.057 294.327 224.388 295.115L224.586 295.151L256.812 239.056Z" fill="#515151"/>
<path d="M257.163 154.021H141.167V237.005H257.163V154.021Z" fill="white" stroke="#515151" stroke-width="2.085"/>
<path d="M104.184 284.617L141.098 237.819H256.689L219.776 284.617H104.184Z" fill="#E6E8EA" stroke="#515151" stroke-width="2.085"/>
<path fill-rule="evenodd" clip-rule="evenodd" d="M211.976 163.812H157.937V208.535H197.069V221.579H227.505V193.006H211.976V163.812Z" fill="#C6CACD"/>
<path fill-rule="evenodd" clip-rule="evenodd" d="M159.833 165.605H210.427V193.006H197.069V206.882H159.833V165.605ZM197.069 208.604H157.918V163.882H212.149V193.006H227.505V221.579H197.069V208.604ZM212.149 194.729H225.781V219.855H198.792V208.604H212.149V194.729ZM210.427 194.729V206.882H198.792V194.729H210.427Z" fill="white"/>
<path d="M90.2584 364.639H69.8679C78.5984 362.11 78.2922 339.653 77.0476 328.74C78.8855 340.687 86.6207 357.65 90.2584 364.639Z" fill="#515151" stroke="black" stroke-width="2.085"/>
<path d="M158.323 84.6281C158.323 122.377 127.721 152.979 89.972 152.979C52.2227 152.979 21.6207 122.377 21.6207 84.6281C21.6207 46.8787 52.2227 16.2768 89.972 16.2768C127.721 16.2768 158.323 46.8787 158.323 84.6281Z" fill="#EAF5FF"/>
<path fill-rule="evenodd" clip-rule="evenodd" d="M99.1626 52.3673C99.1626 47.2918 95.048 43.1772 89.9725 43.1772C84.897 43.1772 80.7825 47.2918 80.7825 52.3673V75.4376H57.7122C52.6366 75.4376 48.5221 79.5521 48.5221 84.6276C48.5221 89.7032 52.6366 93.8177 57.7122 93.8177H80.7825V116.888C80.7825 121.964 84.897 126.078 89.9725 126.078C95.048 126.078 99.1626 121.964 99.1626 116.888V93.8177H122.233C127.308 93.8177 131.423 89.7032 131.423 84.6276C131.423 79.5521 127.308 75.4376 122.233 75.4376H99.1626V52.3673Z" fill="#0064FA"/>
<path d="M133.071 173.738C123.638 169.916 104.853 157.149 105.176 136.652" stroke="#515151" stroke-width="2.085"/>
<path d="M109.645 229.83C115.664 230.026 123.213 231.735 130.44 240.011C135.615 245.936 140.168 255.039 145.977 270.237C147.704 256.355 152.385 242.598 154.881 236.203C157.378 229.811 165.902 214.832 174.366 214.284C182.829 213.738 183.682 221.713 179.724 223.967C175.766 226.218 173.452 225.974 169.738 231.089C166.024 236.203 163.572 241.393 165.53 254.714C167.043 248.588 169.21 245.161 171.316 242.819C173.422 240.48 189.66 226.02 201.266 225.411C209.307 224.99 212.09 226.883 211.238 229.019C214.259 228.201 217.215 227.847 219.736 228.339C224.081 229.189 225.524 232.294 223.545 234.969C228.112 234.625 232.469 235.438 234.725 238.795C235.409 239.815 235.23 242.21 233.564 244.185C231.95 246.101 228.879 247.604 227.659 248.248C225.178 249.558 215.287 255.994 212.339 265.147C209.39 274.298 206.644 280.704 219.559 308.568C229.371 329.737 231.304 353.024 223.445 370.292C242.133 369.704 258.655 365.807 269.359 359.769C278.514 354.604 286.612 348.308 291.02 337.86C286.168 296.881 286.3 218.479 292.928 218.135C302.294 217.649 296.533 318.227 292.928 332.186C292.407 334.207 291.767 336.092 291.02 337.86C292.419 349.675 294.233 358.38 296.424 361.205C299.965 365.767 380.738 371.124 401.106 364.518C403.769 363.655 405.399 362.588 405.689 361.287C407.799 351.815 374.845 344.058 362.156 332.186C353.428 324.019 356.387 264.578 351.81 226.984C347.232 189.387 335.312 150.938 299.137 142.107C270.733 135.172 247.041 145.725 236.283 153.867H178.511C184.171 142.203 200.318 120.394 233.564 113.875C273.723 106.001 308.993 124.702 331.465 150.293C341.796 161.222 347.622 168.451 350.71 168.451C353.797 168.451 369.944 158.691 387.422 157.557C392.624 157.236 392.535 163.07 389.887 171.749C388.805 175.301 387.614 178.136 385.546 182.311C380.444 192.609 369.201 212.13 351.81 226.984C356.387 264.578 353.428 324.019 362.156 332.186C374.845 344.058 407.799 351.815 405.689 361.287C405.399 362.588 403.769 363.655 401.106 364.518C380.738 371.124 299.965 365.767 296.424 361.205C294.233 358.38 292.419 349.675 291.02 337.86C286.612 348.308 278.514 354.604 269.359 359.769C258.655 365.807 242.133 369.704 223.445 370.292C220.962 375.752 217.499 380.611 212.995 384.61C194.25 401.256 152.563 408.95 113.394 388.106C93.4595 377.498 82.7072 351.37 76.9117 325.202L76.9224 325.314C78.6856 343.927 79.7129 354.773 72.3633 363.933C57.6201 365.223 44.4501 363.933 31.5488 359.94C20.658 356.568 4.62558 342.601 14.0829 312.788C23.5403 282.972 72.4171 244.445 76.9117 241.456C81.4064 238.468 93.5029 229.83 109.645 229.83Z" fill="white"/>
<path d="M145.977 270.237C142.269 292.557 146.253 328.759 152.914 327.134C155.005 326.624 156.197 323.836 156.4 319.011C171.316 319.706 214.301 335.656 228.266 343.6C228.587 353.237 227.04 362.394 223.445 370.292C220.962 375.752 217.499 380.61 212.995 384.61C194.25 401.256 152.563 408.95 113.394 388.106C93.4595 377.498 82.7072 351.37 76.9117 325.202L76.9224 325.314C78.6856 343.927 79.7129 354.773 72.3633 363.933C57.6201 365.223 44.4501 363.933 31.5488 359.94C20.658 356.568 4.62558 342.601 14.0829 312.788C23.5403 282.972 72.4171 244.445 76.9117 241.456C81.4064 238.468 93.5029 229.827 109.645 229.827C115.664 230.026 123.213 231.735 130.44 240.011C135.615 245.936 140.168 255.039 145.977 270.237Z" fill="#E6E8EA"/>
<path d="M145.977 270.237C157.453 304.669 159.028 325.644 152.914 327.134C146.253 328.759 142.269 292.557 145.977 270.237ZM145.977 270.237C140.168 255.039 135.615 245.936 130.44 240.011C123.213 231.735 115.664 230.026 109.645 229.83C93.5029 229.83 81.4064 238.468 76.9117 241.456C72.4171 244.445 23.5403 282.972 14.0829 312.788C4.62558 342.601 20.658 356.568 31.5488 359.94C44.4501 363.933 57.6201 365.223 72.3633 363.933C79.7275 354.754 78.6815 343.883 76.9117 325.202M145.977 270.237C147.704 256.355 152.385 242.598 154.881 236.203C157.378 229.811 165.902 214.832 174.366 214.284C182.829 213.738 183.682 221.713 179.724 223.967C175.766 226.218 173.452 225.974 169.738 231.089C166.024 236.203 163.572 241.393 165.53 254.714C167.043 248.588 169.21 245.161 171.316 242.819C173.422 240.48 189.66 226.02 201.266 225.411C212.87 224.805 213.527 229.014 208.098 231.823C202.67 234.631 192.224 237.252 178.195 257.187C178.195 257.187 176.951 246.253 199.066 234.162C205.052 230.891 213.658 227.152 219.736 228.339C226.296 229.621 226.243 236.043 217.785 238.366C215.26 239.058 210.754 241.424 207.174 244.445C201.223 249.464 196.2 256.057 195.119 258.073C196.008 250.725 204.101 240.325 213.8 237.069C220.493 234.823 230.795 232.947 234.725 238.795C235.409 239.815 235.23 242.21 233.564 244.185C231.95 246.101 228.879 247.604 227.659 248.248C225.178 249.558 215.287 255.994 212.339 265.147C209.39 274.298 206.644 280.704 219.559 308.568C229.371 329.737 231.304 353.024 223.445 370.292M76.9117 325.202C71.3202 299.954 70.3433 274.672 70.1857 263.256M76.9117 325.202C82.7072 351.37 93.4595 377.498 113.394 388.106C152.563 408.95 194.25 401.256 212.995 384.61C217.499 380.611 220.962 375.752 223.445 370.292M223.445 370.292C242.133 369.704 258.655 365.807 269.359 359.769C280.063 353.731 289.323 346.145 292.928 332.186C296.533 318.227 302.294 217.649 292.928 218.135C284.39 218.579 286.633 348.581 296.424 361.205C299.965 365.767 380.738 371.124 401.106 364.518M401.106 364.518C403.769 363.655 405.399 362.588 405.689 361.287C407.799 351.815 374.846 344.058 362.156 332.186C353.428 324.019 356.387 264.578 351.81 226.984M401.106 364.518C400.224 358.441 398.504 357.094 391.092 354.923M351.81 226.984C347.234 189.387 335.312 150.938 299.137 142.107C270.733 135.172 247.041 145.725 236.283 153.867H178.511C184.171 142.203 200.318 120.394 233.564 113.875C273.723 106.001 308.993 124.702 331.465 150.293C341.796 161.222 347.622 168.451 350.71 168.451C353.797 168.451 369.944 158.691 387.422 157.557C392.624 157.236 392.535 163.07 389.887 171.749M351.81 226.984C369.201 212.13 380.444 192.609 385.546 182.311C387.614 178.136 388.805 175.301 389.887 171.749M389.887 171.749C389.918 169.642 390.206 167.427 388.99 166.037C385.302 161.82 376.722 161.72 375.531 170.161" stroke="#515151" stroke-width="2.085"/>
<path d="M121.189 217.303C121.189 229.492 111.44 239.35 99.4419 239.35C87.444 239.35 77.6947 229.492 77.6947 217.303C77.6947 205.113 87.444 195.255 99.4419 195.255C111.44 195.255 121.189 205.113 121.189 217.303Z" fill="white" stroke="#515151" stroke-width="2.085"/>
<path fill-rule="evenodd" clip-rule="evenodd" d="M102.195 195.552C115.076 196.773 111.703 221.204 103.422 232.2C97.4167 240.173 100.98 247.07 105.313 255.456C106.196 257.166 107.111 258.938 107.984 260.792C112.07 266.774 114.435 273.867 114.435 281.473C114.435 302.838 95.7739 320.156 72.7538 320.156C49.7338 320.156 31.0724 302.838 31.0724 281.473C31.0724 265.026 42.1321 250.978 57.726 245.382C72.9536 236.96 77.7076 228.545 78.2743 213.875C78.7649 201.171 89.3148 194.33 102.195 195.552Z" fill="#515151"/>
<mask id="mask0_21_401" style="mask-type:luminance" maskUnits="userSpaceOnUse" x="31" y="195" width="84" height="126">
<path fill-rule="evenodd" clip-rule="evenodd" d="M102.195 195.552C115.076 196.773 111.703 221.204 103.422 232.2C97.4167 240.173 100.98 247.07 105.313 255.456C106.196 257.166 107.111 258.938 107.984 260.792C112.07 266.774 114.435 273.867 114.435 281.473C114.435 302.838 95.7739 320.156 72.7538 320.156C49.7338 320.156 31.0724 302.838 31.0724 281.473C31.0724 265.026 42.1321 250.978 57.726 245.382C72.9536 236.96 77.7076 228.545 78.2743 213.875C78.7649 201.171 89.3148 194.33 102.195 195.552Z" fill="white"/>
</mask>
<g mask="url(#mask0_21_401)">
<path d="M107.984 260.792L102.324 263.454L102.537 263.907L102.819 264.32L107.984 260.792ZM57.726 245.382L59.8387 251.27L60.3124 251.099L60.7528 250.855L57.726 245.382ZM108.419 235.962C113.432 229.306 116.688 219.167 116.995 210.431C117.15 206.046 116.591 201.326 114.539 197.368C112.324 193.096 108.386 189.856 102.786 189.324L101.605 201.779C102.445 201.858 102.916 202.13 103.433 203.126C104.112 204.436 104.607 206.741 104.493 209.991C104.264 216.523 101.693 224.098 98.4258 228.437L108.419 235.962ZM110.87 252.585C108.58 248.153 107.127 245.219 106.646 242.561C106.267 240.469 106.488 238.526 108.419 235.962L98.4258 228.437C94.3509 233.847 93.3503 239.339 94.3355 244.787C95.218 249.666 97.7127 254.372 99.756 258.327L110.87 252.585ZM113.644 258.129C112.714 256.153 111.746 254.28 110.87 252.585L99.756 258.327C100.647 260.052 101.509 261.722 102.324 263.454L113.644 258.129ZM102.819 264.32C106.233 269.319 108.18 275.193 108.18 281.473H120.69C120.69 272.541 117.906 264.228 113.149 257.264L102.819 264.32ZM108.18 281.473C108.18 298.951 92.7673 313.901 72.7538 313.901V326.411C98.7803 326.411 120.69 306.724 120.69 281.473H108.18ZM72.7538 313.901C52.7403 313.901 37.3274 298.951 37.3274 281.473H24.8174C24.8174 306.724 46.7272 326.411 72.7538 326.411V313.901ZM37.3274 281.473C37.3274 267.983 46.4182 256.084 59.8387 251.27L55.6133 239.494C37.8461 245.869 24.8174 262.07 24.8174 281.473H37.3274ZM72.0239 213.633C71.7645 220.351 70.5721 224.905 68.2148 228.624C65.8289 232.388 61.8253 235.968 54.6992 239.908L60.7528 250.855C68.854 246.376 74.8413 241.537 78.7811 235.321C82.7493 229.06 84.2174 222.071 84.5245 214.117L72.0239 213.633ZM102.786 189.324C95.1436 188.6 87.681 190.219 81.9005 194.439C75.99 198.754 72.3402 205.443 72.0239 213.633L84.5245 214.117C84.6988 209.603 86.5695 206.52 89.2766 204.543C92.1141 202.472 96.3667 201.282 101.605 201.779L102.786 189.324Z" fill="#515151"/>
</g>
<path d="M112.793 220.902C112.793 224.427 109.808 227.355 106.039 227.355C102.27 227.355 99.2849 224.427 99.2849 220.902C99.2849 217.374 102.27 214.446 106.039 214.446C109.808 214.446 112.793 217.374 112.793 220.902Z" fill="white" stroke="#515151" stroke-width="2.085"/>
<path d="M77.3924 198.212C77.3924 202.031 74.1798 205.28 70.0246 205.28C65.8694 205.28 62.6569 202.031 62.6569 198.212C62.6569 194.393 65.8694 191.144 70.0246 191.144C74.1798 191.144 77.3924 194.393 77.3924 198.212Z" fill="#515151" stroke="#515151" stroke-width="6.255"/>
<path d="M306.962 324.524C306.737 331.995 309.604 334.711 316.772 337.201" stroke="#515151" stroke-width="2.085"/>
</g>
<defs>
<clipPath id="clip0_21_401">
<rect width="417" height="417" fill="white"/>
</clipPath>
</defs>
</svg>
